<svg width="512" height="512" viewBox="0 0 512 512" xmlns="http://www.w3.org/2000/svg">
  <rect width="512" height="512" rx="92" fill="#385c47"/>
  <path d="M250 404c12-120-24-205-113-275" fill="none" stroke="#fffaf0" stroke-width="28" stroke-linecap="round"/>
  <path d="M258 382c62-116 86-191 164-255" fill="none" stroke="#fffaf0" stroke-width="28" stroke-linecap="round"/>
  <path d="M203 203c-72-11-115-58-116-127 74 2 125 44 136 110" fill="#87a878"/>
  <path d="M294 222c6-76 52-126 131-145 9 80-33 141-108 166" fill="#87a878"/>
  <path d="M220 314c-75 13-135-16-177-78 70-33 143-17 191 38" fill="#d5a84d"/>
  <path d="M286 319c55-56 127-73 197-42-41 66-101 99-177 87" fill="#d5a84d"/>
</svg>
